<?xml version="1.0" encoding="utf-8"?>
<!-- Generator: Adobe Illustrator 27.5.0, SVG Export Plug-In . SVG Version: 6.00 Build 0)  -->
<svg version="1.1" xmlns="http://www.w3.org/2000/svg" xmlns:xlink="http://www.w3.org/1999/xlink" x="0px" y="0px"
	 viewBox="0 0 500 510.42" style="enable-background:new 0 0 500 510.42;" xml:space="preserve">
<style type="text/css">
	.st0{display:none;}
	.st1{display:inline;stroke:#000000;stroke-miterlimit:10;}
	.st2{display:inline;fill:#FFCCE0;stroke:#F2AAC7;stroke-miterlimit:10;}
	.st3{display:inline;}
	.st4{stroke:#000000;stroke-miterlimit:10;}
	.st5{fill:#FFCCE0;stroke:#F2AAC7;stroke-miterlimit:10;}
	.st6{fill:#FFFFFF;stroke:#FFFFFF;stroke-miterlimit:10;}
	.st7{fill:#FFCCE0;stroke:#E8B0AE;stroke-miterlimit:10;}
</style>
<g id="Capa_1" class="st0">
</g>
<g id="Capa_3" class="st0">
	<path class="st1" d="M196.95,89.42c-0.78-3.54,11.96-9.35,26.84-17.67c4.99-2.79,12.37-7.07,21.25-12.79
		c-0.31-0.09,11.39-7.87,18.47-20.65c1.28-2.31,1.82-3.89,1.2-6.03c-0.52-1.81-0.73-2.34-2.17-3.11c-2.02-1.09-4.48-2.69-6.24-5.42
		c-2.91-4.51-2.62-12.4,1.22-16.92c3.08-3.62,7.29-3.72,7.61-3.72c3.25-0.02,6.38,1.69,8.22,4.4c1.48,2.18,1.74,4.44,2.13,7.78
		c0.42,3.61-0.24,5.09,0.04,6.74c0.01,0.05,0.04,0.22-0.04,0.37c-0.38,0.75-3.05,0.53-4.26-0.68c-2.27-2.27,1.3-7.26-0.91-10.83
		c-1.43-2.3-4.91-3.43-7.3-2.03c-3.11,1.82-2.79,6.96-2.74,7.78c0.21,3.47,0.75,3.87,3.03,6.59c1.6,1.9,3.58,3.81,4.27,4.92
		c2.24,3.62,1.43,4.97,2.13,8.29c0.41,1.95,1.99,7.96,5.33,10.83c5.75,4.93,10.5,7.62,10.5,7.62s14.93,15.6,29.83,20.31
		c1.14,0.36,4.17,1.26,7.91,3.38c6.25,3.54,11.96,9.06,11.26,10.49c-0.57,1.16-5.27-0.53-9.44-2.03c-6.94-2.5-11.44-5.09-15.22-7.11
		c-12.33-6.58-11.82-4.25-21.61-9.82c-9.17-5.22-10.42-7.71-16.44-8.8c-6.13-1.11-11.29,0.32-13.7,1.02
		c-5.61,1.62-5.96,3.27-16.13,8.46c-4.73,2.41-8.47,4-13.39,6.09c-7.16,3.04-8.22,3.14-11.95,5.92c-3.78,2.81-6.15,3.31-10.35,5.75
		c-1.17,0.68-5.77,4.63-8.6,1.95C197.37,90.2,197.05,89.9,196.95,89.42z"/>
</g>
<g id="Capa_2" class="st0">
	<path class="st2" d="M208.36,76.22c0,0,2.19,40.29,0,42.39c-2.19,2.1-11.41,9.65-8.67,18.02c2.74,8.38,26.71,24.88,35.84,26.91
		c9.13,2.03,28.99,23.1,28.76,29.19c-0.23,6.09,13.24,25.13-11.87,55.34s-38.66,30.78-43.83,33.76S98.77,345.04,98.77,345.04
		c-35.36,36.05-52.45,31.87-43.35,87.58c1.37,8.38,26.02,61.68,26.02,61.68s-16.44-50.77-5.48-68.54
		c10.96-17.77,71.91-50.77,82.86-52.55c10.96-1.78,9.36-2.54,9.36-2.54l-7.84,6.85c0,0-69.09,31.98-69.77,51.02
		c-0.68,19.04,25.34,64.22,43.37,63.46s76.24-24.88,76.24-24.88l39.62-13.96c26.81-8.12,26.81-8.12,26.81-8.12
		s38.81,2.28,41.32,34.52c0,0,3.88-36.3-28.53-52.29c0,0,17.81-10.66,36.29,14.72c18.49,25.38,19.4,46.2,20.54,48.74
		c1.14,2.54-1.83,6.6,9.59,9.14s25.34-37.06,26.71-40.87c1.37-3.81,5.02-15.99-1.14-37.32c-6.16-21.32-57.52-112.71-57.52-112.71
		s-15.29-28.68-15.52-56.1s2.97-44.42,13.01-64.22c10.04-19.8,12.78-31.98,16.21-59.4s-16.89-33.51-17.35-34.02
		s0.68-20.82,0.68-20.82h-6.62c0,0-3.2,14.22-6.62,17.52s-60.42,32.13-63,33.51c-2.58,1.37-10.73,0.76-14.15,0
		s-14.08-20.63-14.84-27.67s-2.28-21.32-2.28-21.32L208.36,76.22z"/>
</g>
<g id="Capa_4" class="st0">
	<g class="st3">
		<path class="st4" d="M1291.05-292.38c-0.26-0.98,4.03-2.58,9.04-4.87c1.68-0.77,4.17-1.95,7.15-3.53
			c-0.1-0.03,3.83-2.17,6.22-5.69c0.43-0.64,0.61-1.07,0.4-1.66c-0.18-0.5-0.24-0.64-0.73-0.86c-0.68-0.3-1.51-0.74-2.1-1.49
			c-0.98-1.24-0.88-3.42,0.41-4.67c1.04-1,2.45-1.03,2.56-1.03c1.09-0.01,2.15,0.47,2.77,1.21c0.5,0.6,0.59,1.22,0.72,2.15
			c0.14,1-0.08,1.4,0.01,1.86c0,0.01,0.01,0.06-0.01,0.1c-0.13,0.21-1.03,0.15-1.43-0.19c-0.77-0.62,0.44-2-0.31-2.99
			c-0.48-0.64-1.65-0.95-2.46-0.56c-1.05,0.5-0.94,1.92-0.92,2.15c0.07,0.96,0.25,1.07,1.02,1.82c0.54,0.53,1.21,1.05,1.44,1.36
			c0.75,1,0.48,1.37,0.72,2.29c0.14,0.54,0.67,2.2,1.79,2.99c1.93,1.36,3.54,2.1,3.54,2.1s5.03,4.3,10.04,5.6
			c0.38,0.1,1.41,0.35,2.66,0.93c2.1,0.98,4.03,2.5,3.79,2.89c-0.19,0.32-1.77-0.15-3.18-0.56c-2.34-0.69-3.85-1.4-5.12-1.96
			c-4.15-1.81-3.98-1.17-7.28-2.71c-3.09-1.44-3.51-2.13-5.53-2.43c-2.06-0.3-3.8,0.09-4.61,0.28c-1.89,0.45-2.01,0.9-5.43,2.33
			c-1.59,0.66-2.85,1.1-4.51,1.68c-2.41,0.84-2.77,0.87-4.02,1.63c-1.27,0.78-2.07,0.91-3.48,1.59c-0.39,0.19-1.94,1.28-2.89,0.54
			C1291.19-292.16,1291.08-292.25,1291.05-292.38z"/>
		<g>
			<path class="st5" d="M1295.38-295.62c0,0,0.74,11.11,0,11.69s-3.84,2.66-2.92,4.97c0.92,2.31,8.99,6.86,12.07,7.42
				c3.07,0.56,9.76,6.37,9.68,8.05c-0.08,1.68,4.46,6.93-4,15.26c-8.45,8.33-13.01,8.49-14.76,9.31
				c-1.74,0.82-36.97,17.43-36.97,17.43c-11.9,9.94-17.66,8.79-14.59,24.15c0.46,2.31,8.76,17.01,8.76,17.01s-5.53-14-1.84-18.9
				c3.69-4.9,24.21-14,27.9-14.49c3.69-0.49,3.15-0.7,3.15-0.7l-2.64,1.89c0,0-23.26,8.82-23.49,14.07
				c-0.23,5.25,8.53,17.71,14.6,17.5c6.07-0.21,25.67-6.86,25.67-6.86l13.34-3.85c9.03-2.24,9.03-2.24,9.03-2.24
				s13.06,0.63,13.91,9.52c0,0,1.31-10.01-9.61-14.42c0,0,5.99-2.94,12.22,4.06c6.23,7,6.53,12.74,6.92,13.44s-0.61,1.82,3.23,2.52
				s8.53-10.22,8.99-11.27c0.46-1.05,1.69-4.41-0.38-10.29c-2.07-5.88-19.37-31.08-19.37-31.08s-5.15-7.91-5.23-15.47
				c-0.08-7.56,1-12.25,4.38-17.71s4.3-8.82,5.46-16.38s-5.69-9.24-5.84-9.38c-0.15-0.14,0.23-5.74,0.23-5.74h-2.23
				c0,0-1.08,3.92-2.23,4.83c-1.15,0.91-20.34,8.86-21.21,9.24c-0.87,0.38-3.61,0.21-4.76,0c-1.15-0.21-4.74-5.69-5-7.63
				c-0.25-1.94-0.77-5.88-0.77-5.88L1295.38-295.62z"/>
			
				<text transform="matrix(0.633 0 0 1 1215.1327 -137.9776)" style="font-family:'LucidaHandwriting-Italic'; font-size:35.506px;">Adrile Boutique</text>
			<text transform="matrix(1 0 0 1 1226.8223 -115.6026)" style="font-family:'ArialMT'; font-size:13px;">Moda femenina y accesorios</text>
		</g>
	</g>
</g>
<g id="Capa_6" class="st0">
	<path class="st3" d="M15.17,230.36l-0.53,1.77c-2.22,7.28-3.33,12.91-3.33,16.91c0,1.18,0.26,2.32,0.77,3.44
		c-0.42,0.25-1.38,0.85-2.86,1.81c-0.69,0.43-1.34,0.65-1.96,0.65c-1.23,0-1.85-1.04-1.85-3.11c0-4.3,1.52-10.87,4.57-19.7
		l0.82-2.37H9.46c-2.89,0-5.13,0.79-6.72,2.37c0.83-5.23,3.06-7.85,6.69-7.85l3.28,0.14l0.71-1.86c2.77-7.31,7-17.14,12.69-29.5
		c1.92-4.18,3.36-6.78,4.31-7.81c0.95-1.02,2.79-1.95,5.53-2.79c-0.51,5.57-0.77,10.76-0.77,15.56c0,12.73,0.84,25.63,2.51,38.7
		c0.92,7.19,2.32,11.82,4.2,13.89c-1.66,2.88-3.08,4.32-4.26,4.32c-2.78,0-4.94-8.39-6.45-25.18c-2.91,0.56-5.84,0.84-8.81,0.84
		L15.17,230.36z M17.07,224.88l5.34,0.23c3.65,0,6.44-0.21,8.38-0.65c-0.81-10.87-1.22-19.88-1.22-27.04l0.03-3.48
		c-0.58,1.3-1.89,4.12-3.91,8.45c-3.67,7.9-6.36,14.79-8.07,20.67L17.07,224.88z"/>
	<path class="st3" d="M71.46,226.04c-2.75,8.7-5.63,15.6-8.63,20.7c-3.01,5.09-5.69,7.64-8.05,7.64c-1.89,0-3.38-1.45-4.5-4.34
		c-1.11-2.9-1.67-6.77-1.67-11.64c0-9.79,1.66-18.36,4.97-25.71s7.17-11.03,11.56-11.03c2.63,0,5.49,1.47,8.59,4.41l2.83-25
		c-1.55,0.56-2.84,0.84-3.86,0.84c-1.55,0-2.69-0.65-3.41-1.94c-0.72-1.29-1.3-3.71-1.74-7.26c1.27,1.52,3.22,2.28,5.84,2.28
		c3.26,0,6.41-1.05,9.44-3.16l-5.76,50.91c-0.65,5.7-0.98,10.55-0.98,14.54c0,5.33,0.86,7.99,2.59,7.99c1.69,0,4.51-3.48,8.45-10.45
		c3.94-6.97,7.22-14.26,9.85-21.88l2.17,2.42c-3.14,10.1-7.06,19.12-11.75,27.08c-4.7,7.96-8.45,11.94-11.25,11.94
		c-3.56,0-5.34-5.02-5.34-15.05C70.8,235.18,71.02,230.75,71.46,226.04z M72.87,213.73c-3.67-4.24-6.72-6.36-9.15-6.36
		c-2.64,0-4.93,2.85-6.86,8.55c-1.93,5.7-2.9,12.43-2.9,20.21c0,6.25,1.16,9.38,3.49,9.38c2.5,0,7.31-9.72,14.44-29.17
		C72.01,216,72.34,215.13,72.87,213.73z"/>
	<path class="st3" d="M98.25,252.89c-1.2,0.99-2.17,1.49-2.9,1.49c-1.81,0-2.71-1.39-2.71-4.18c0-1.42,0.32-4.97,0.95-10.64
		L94.92,228c0.81-6.88,1.22-11.97,1.22-15.28c0-1.8-0.29-3.3-0.87-4.51c1.85-1.11,3.36-1.67,4.52-1.67c1.23,0,1.85,1.38,1.85,4.13
		c0,1.7-0.44,6.18-1.31,13.43l-1.5,13.52c3.33-11.37,6.68-20.2,10.05-26.5c3.37-6.3,6.43-9.45,9.18-9.45c0.97,0,1.81,0.49,2.51,1.46
		c0.7,0.98,1.06,2.16,1.06,3.55c0,2.17-1.34,5.05-4.02,8.64c-0.67-2.44-1.62-3.67-2.85-3.67c-2.24,0-5.09,4.18-8.55,12.54
		c-2.15,5.2-4.01,10.57-5.6,16.1c-1.58,5.53-2.38,9.47-2.38,11.82L98.25,252.89z"/>
	<path class="st3" d="M152.45,215.2c-3.98,12.27-8.01,21.86-12.08,28.79c-4.07,6.93-7.73,10.39-10.97,10.39
		c-1.98,0-3.57-1.13-4.77-3.39c-1.21-2.26-1.81-5.23-1.81-8.92c0-1.39,0.18-3.61,0.53-6.64l0.58-5.11c0.86-7.37,1.3-12.54,1.3-15.52
		c0-1.76-0.3-3.21-0.9-4.32c2.29-0.93,3.73-1.39,4.31-1.39c1.3,0,1.96,1.61,1.96,4.83c0,2.38-0.26,5.8-0.77,10.26l-1.03,9.05
		c-0.51,4.36-0.77,7.2-0.77,8.49c0,3.84,0.92,5.75,2.78,5.75c2.2,0,5.14-3.26,8.81-9.77c3.67-6.51,7.22-14.77,10.66-24.76
		L152.45,215.2z M128.92,191.81l0.37,0.05c1.18-0.09,2.88-1.14,5.09-3.14c2.21-2,3.94-4.04,5.2-6.12
		c-0.78,4.28-2.15,7.85-4.12,10.73c-3,4.4-5.02,6.6-6.08,6.6c-0.7,0-1.06-0.76-1.06-2.27C128.31,195.5,128.52,193.55,128.92,191.81z
		"/>
	<path class="st3" d="M174.43,215.36c-3.65,12.17-7.32,21.72-11,28.64c-3.68,6.92-6.95,10.38-9.78,10.38c-2.06,0-3.73-1.4-5-4.2
		s-1.9-6.47-1.9-10.99c0-2.54,0.26-6.13,0.79-10.78l5.26-46.55c-0.69,0.19-1.29,0.28-1.8,0.28c-4.05,0-6.08-2.97-6.08-8.92v-1.07
		c2.12,2.11,4.5,3.16,7.17,3.16c2.66,0,4.99-1.16,6.98-3.48l-6.13,55.88c-0.55,5.02-0.82,8.47-0.82,10.36
		c0,5.24,1.09,7.85,3.28,7.85c2.12,0,4.24-2.1,6.39-6.3c2.14-4.2,5.65-13.14,10.54-26.83L174.43,215.36z"/>
	<path class="st3" d="M172.44,233.88c0,9.06,2.19,13.58,6.56,13.58c3.79,0,7.97-3.17,12.53-9.5c4.56-6.33,8.68-14.68,12.35-25.03
		l2.25,2.18c-3.46,11.32-7.95,20.7-13.47,28.13c-5.53,7.43-10.77,11.14-15.72,11.14c-3.17,0-5.68-1.8-7.52-5.39
		s-2.76-8.5-2.76-14.72c0-8.98,1.67-16.66,5.01-23.04c3.34-6.38,7.37-9.57,12.07-9.57c2.27,0,4.09,1,5.46,3.02
		c1.37,2.01,2.05,4.7,2.05,8.08c0,5.54-1.9,10.45-5.7,14.72C181.75,231.74,177.38,233.88,172.44,233.88z M172.65,229.42
		c3.68-0.34,6.84-2.19,9.48-5.56c2.64-3.37,3.95-7.26,3.95-11.68c0-3.95-1-5.93-3.01-5.93c-2.4,0-4.61,2.26-6.64,6.76
		C174.41,217.53,173.15,222.99,172.65,229.42z"/>
	<path class="st3" d="M215.17,208.86c-0.46-1.7-0.69-3.32-0.69-4.83c0-5.32,2.45-10.2,7.36-14.63c4.91-4.43,10.3-6.64,16.17-6.64
		c3.28,0,5.93,1.1,7.95,3.3c2.02,2.2,3.03,5.08,3.03,8.64c0,6.6-2.67,12.79-8.01,18.58c3.12,1.49,5.57,3.73,7.34,6.74
		c1.77,3,2.66,6.41,2.66,10.22c0,7.49-2.32,13.87-6.95,19.14c-4.64,5.26-10.25,7.9-16.84,7.9c-4.85,0-7.27-2.68-7.27-8.04
		c0-1.27,0.26-4.24,0.79-8.92l3.73-32.93c0.3-2.63,0.45-4.51,0.45-5.62c0-1.08-0.21-2.07-0.63-2.97c2.33-1.55,3.96-2.32,4.89-2.32
		c1.09,0,1.64,1.1,1.64,3.3c0,0.56-0.29,3.29-0.87,8.18l-3.46,30.55c-0.39,3.53-0.58,5.84-0.58,6.93c0,3.91,2.12,5.86,6.34,5.86
		c3.47,0,6.45-1.76,8.92-5.28c2.48-3.52,3.72-7.75,3.72-12.68c0-3.84-0.69-6.85-2.06-9.02c-1.38-2.17-3.67-3.85-6.87-5.03
		c-1.15,0.81-2.4,1.21-3.76,1.21c-0.46,0-1.03-0.14-1.72-0.42c0.51-3.31,1.15-5.54,1.92-6.69c0.77-1.15,2-1.72,3.72-1.72
		c0.44,0,1.03,0.05,1.77,0.14c3.76-4.83,5.63-9.62,5.63-14.36c0-5.6-2.43-8.41-7.3-8.41C228.29,189.02,221.29,195.63,215.17,208.86z
		"/>
	<path class="st3" d="M286.22,218.98c0.05,0.74,0.08,1.41,0.08,2c0,8.95-1.73,16.75-5.18,23.41c-3.45,6.66-7.5,9.99-12.14,9.99
		c-3.54,0-6.43-1.99-8.66-5.97c-2.23-3.98-3.34-9.14-3.34-15.49c0-7.22,1.44-13.47,4.32-18.77c2.88-5.29,6.28-7.94,10.19-7.94
		c0.6,0,1.23,0.14,1.9,0.42c-0.44-1.39-0.66-2.57-0.66-3.53c0-1.49,0.29-2.91,0.87-4.27c4.3,0.62,7.88,4.49,10.73,11.61
		c2.93,3.5,5.98,5.25,9.15,5.25c2.06,0,4.29-1.22,6.69-3.67l1.32,3.95c-2.8,3.44-5.68,5.15-8.62,5.15
		C290.93,221.12,288.71,220.41,286.22,218.98z M280.22,215.03c-1.46-0.77-2.81-2.01-4.04-3.72c-0.9-0.34-1.65-0.51-2.25-0.51
		c-3,0.01-5.65,2.38-7.97,7.11c-2.32,4.74-3.48,10.14-3.48,16.21c0,4.4,0.7,8.01,2.1,10.84c1.4,2.83,3.2,4.25,5.4,4.25
		c2.98-0.01,5.54-2.65,7.69-7.92s3.22-11.57,3.23-18.88C280.9,219.88,280.67,217.42,280.22,215.03z"/>
	<path class="st3" d="M318.14,224.6c-2.43,8.83-5.15,16-8.14,21.51c-3,5.51-5.68,8.27-8.06,8.27c-1.92,0-3.48-1.19-4.68-3.57
		c-1.2-2.38-1.8-5.48-1.8-9.28c0-4.89,0.93-13.86,2.8-26.92c0.51-3.53,0.77-5.75,0.77-6.68c0-0.93-0.17-1.93-0.5-3.02l3.65-0.05
		c1.57,0,2.35,1.07,2.35,3.2c0,1.33-0.51,5.14-1.53,11.45c-0.32,1.89-0.52,3.18-0.61,3.9l-0.4,2.83c-0.78,5.66-1.16,9.97-1.16,12.93
		c0,4.57,0.9,6.86,2.7,6.86c2.94,0,6.68-6.4,11.21-19.19c3.7-10.41,5.55-17.83,5.55-22.25c0-0.62-0.11-1.24-0.32-1.86
		c1.44-0.71,2.67-1.06,3.68-1.06c1.55,0,2.33,0.83,2.33,2.5c0,0.4-0.07,0.99-0.21,1.76c-0.07,0.46-0.24,1.59-0.5,3.38
		c-0.04,0.34-0.21,1.59-0.53,3.75c-0.23,1.52-0.4,2.72-0.5,3.62l-0.26,2.22c-0.58,5.1-0.87,9.87-0.87,14.32
		c0,6.8,0.93,10.2,2.8,10.2c4.12,0,9.36-10.2,15.71-30.59l2.22,2.32c-7.23,24.42-13.84,36.63-19.83,36.63
		c-4.04,0-6.06-6.15-6.06-18.44C317.92,231.01,317.99,228.1,318.14,224.6z"/>
	<path class="st3" d="M356.5,234.82c0.48,1.52,0.71,2.85,0.71,3.99c0,3.04-1.46,6.39-4.38,10.06c-2.92,3.67-5.57,5.51-7.97,5.51
		c-2.11,0-3.84-1.66-5.17-4.97c-1.33-3.31-2-7.59-2-12.82c0-5.82,0.87-14.11,2.62-24.85l1.22-7.8h-4.47c-1.87,0-3.36,0.46-4.47,1.39
		c1.02-3.26,1.87-5.31,2.54-6.14c0.67-0.83,1.81-1.25,3.41-1.25h3.99l0.53-3.22c0.81-4.78,1.78-8.07,2.91-9.85
		c1.13-1.78,2.82-2.68,5.08-2.68c0.26,0,0.69,0.03,1.27,0.09c-1.37,3.11-2.8,8.32-4.28,15.66H362c2.45,0,4.32-0.56,5.6-1.68
		c-0.44,3.17-1.03,5.24-1.76,6.21c-0.73,0.97-2.09,1.45-4.09,1.45H346.9c-0.18,1.02-0.31,1.78-0.4,2.28
		c-2.13,12.76-3.2,22.39-3.2,28.89c0,7.19,1.47,10.78,4.42,10.78c1.52,0,3.17-1.13,4.96-3.39
		C354.47,240.23,355.74,237.67,356.5,234.82z"/>
	<path class="st3" d="M391.62,215.2c-3.98,12.27-8.01,21.86-12.08,28.79c-4.07,6.93-7.73,10.39-10.97,10.39
		c-1.98,0-3.57-1.13-4.77-3.39c-1.21-2.26-1.81-5.23-1.81-8.92c0-1.39,0.18-3.61,0.53-6.64l0.58-5.11c0.86-7.37,1.3-12.54,1.3-15.52
		c0-1.76-0.3-3.21-0.9-4.32c2.29-0.93,3.73-1.39,4.31-1.39c1.3,0,1.96,1.61,1.96,4.83c0,2.38-0.26,5.8-0.77,10.26l-1.03,9.05
		c-0.51,4.36-0.77,7.2-0.77,8.49c0,3.84,0.92,5.75,2.78,5.75c2.2,0,5.14-3.26,8.81-9.77c3.67-6.51,7.22-14.77,10.66-24.76
		L391.62,215.2z M368.08,191.81l0.37,0.05c1.18-0.09,2.88-1.14,5.09-3.14c2.21-2,3.94-4.04,5.2-6.12
		c-0.78,4.28-2.15,7.85-4.12,10.73c-3,4.4-5.02,6.6-6.08,6.6c-0.7,0-1.06-0.76-1.06-2.27C367.48,195.5,367.68,193.55,368.08,191.81z
		"/>
	<path class="st3" d="M406.66,225.9c-6.08,18.98-11.66,28.48-16.74,28.48c-1.87,0-3.36-1.47-4.47-4.39
		c-1.11-2.93-1.67-6.84-1.67-11.73c0-9.69,1.66-18.22,4.98-25.57c3.32-7.36,7.18-11.03,11.57-11.03c2.61,0,5.46,1.45,8.57,4.37
		c0.51-2.85,2.49-4.28,5.95-4.28h0.77c-1.02,3.01-1.77,6.61-2.25,10.83l-6.21,54.96c-0.44,3.87-0.66,7.25-0.66,10.13
		c0,1.83,0.23,3.48,0.69,4.97c-1.79,1.02-3.15,1.53-4.09,1.53c-1.45,0-2.18-1.45-2.18-4.37c0-2.26,0.29-5.96,0.88-11.1L406.66,225.9
		z M408.04,213.73c-3.68-4.24-6.73-6.36-9.15-6.36c-2.64,0-4.93,2.85-6.86,8.55c-1.93,5.7-2.9,12.43-2.9,20.21
		c0,6.25,1.15,9.38,3.46,9.38c2.52,0,7.34-9.72,14.46-29.17C407.15,216.06,407.47,215.19,408.04,213.73z"/>
	<path class="st3" d="M442.65,224.6c-2.43,8.83-5.15,16-8.14,21.51s-5.68,8.27-8.06,8.27c-1.92,0-3.48-1.19-4.68-3.57
		c-1.2-2.38-1.8-5.48-1.8-9.28c0-4.89,0.93-13.86,2.8-26.92c0.51-3.53,0.77-5.75,0.77-6.68c0-0.93-0.17-1.93-0.5-3.02l3.65-0.05
		c1.57,0,2.35,1.07,2.35,3.2c0,1.33-0.51,5.14-1.53,11.45c-0.32,1.89-0.52,3.18-0.61,3.9l-0.4,2.83c-0.78,5.66-1.16,9.97-1.16,12.93
		c0,4.57,0.9,6.86,2.7,6.86c2.94,0,6.68-6.4,11.21-19.19c3.7-10.41,5.55-17.83,5.55-22.25c0-0.62-0.11-1.24-0.32-1.86
		c1.44-0.71,2.67-1.06,3.68-1.06c1.55,0,2.33,0.83,2.33,2.5c0,0.4-0.07,0.99-0.21,1.76c-0.07,0.46-0.24,1.59-0.5,3.38
		c-0.04,0.34-0.21,1.59-0.53,3.75c-0.23,1.52-0.4,2.72-0.5,3.62l-0.26,2.22c-0.58,5.1-0.87,9.87-0.87,14.32
		c0,6.8,0.93,10.2,2.8,10.2c4.12,0,9.36-10.2,15.71-30.59l2.22,2.32c-7.23,24.42-13.84,36.63-19.83,36.63
		c-4.04,0-6.06-6.15-6.06-18.44C442.44,231.01,442.51,228.1,442.65,224.6z"/>
	<path class="st3" d="M466.31,233.88c0,9.06,2.19,13.58,6.56,13.58c3.79,0,7.97-3.17,12.53-9.5c4.56-6.33,8.68-14.68,12.35-25.03
		l2.25,2.18c-3.46,11.32-7.95,20.7-13.47,28.13c-5.53,7.43-10.77,11.14-15.72,11.14c-3.17,0-5.68-1.8-7.52-5.39
		s-2.76-8.5-2.76-14.72c0-8.98,1.67-16.66,5.01-23.04c3.34-6.38,7.37-9.57,12.07-9.57c2.27,0,4.09,1,5.46,3.02
		c1.37,2.01,2.05,4.7,2.05,8.08c0,5.54-1.9,10.45-5.7,14.72C475.62,231.74,471.25,233.88,466.31,233.88z M466.52,229.42
		c3.68-0.34,6.84-2.19,9.48-5.56c2.64-3.37,3.95-7.26,3.95-11.68c0-3.95-1-5.93-3.01-5.93c-2.4,0-4.61,2.26-6.64,6.76
		C468.28,217.53,467.02,222.99,466.52,229.42z"/>
	<g class="st3">
		<path d="M35.27,298.67v-21.1h3.78l4.49,14.94c0.41,1.39,0.72,2.43,0.91,3.12c0.22-0.77,0.55-1.89,1.01-3.38L50,277.58h3.38v21.1
			h-2.42v-17.66l-5.51,17.66h-2.26l-5.49-17.96v17.96H35.27z"/>
		<path d="M56.26,291.03c0-2.83,0.71-4.93,2.12-6.29c1.18-1.13,2.62-1.7,4.32-1.7c1.89,0,3.43,0.69,4.63,2.06
			c1.2,1.38,1.8,3.28,1.8,5.71c0,1.97-0.26,3.51-0.8,4.64c-0.53,1.13-1.3,2-2.32,2.63c-1.01,0.62-2.12,0.93-3.32,0.93
			c-1.92,0-3.48-0.69-4.67-2.06C56.86,295.59,56.26,293.61,56.26,291.03z M58.66,291.03c0,1.96,0.38,3.42,1.15,4.4
			c0.77,0.97,1.73,1.46,2.9,1.46c1.16,0,2.12-0.49,2.89-1.47s1.15-2.47,1.15-4.47c0-1.89-0.39-3.32-1.16-4.3
			c-0.77-0.97-1.73-1.46-2.88-1.46c-1.16,0-2.13,0.48-2.9,1.45C59.04,287.61,58.66,289.08,58.66,291.03z"/>
		<path d="M80.79,298.67v-1.93c-0.87,1.52-2.15,2.27-3.84,2.27c-1.1,0-2.1-0.33-3.02-1.01c-0.92-0.67-1.63-1.61-2.13-2.81
			c-0.51-1.2-0.76-2.59-0.76-4.15c0-1.53,0.23-2.91,0.69-4.15c0.46-1.24,1.14-2.19,2.06-2.85s1.94-0.99,3.07-0.99
			c0.83,0,1.57,0.19,2.21,0.58c0.65,0.39,1.17,0.89,1.58,1.52v-7.57h2.32v21.1H80.79z M73.42,291.05c0,1.96,0.37,3.42,1.11,4.39
			c0.74,0.97,1.62,1.45,2.63,1.45c1.02,0,1.88-0.46,2.6-1.39c0.71-0.92,1.07-2.34,1.07-4.24c0-2.09-0.36-3.63-1.09-4.61
			s-1.62-1.47-2.68-1.47c-1.04,0-1.9,0.47-2.6,1.41C73.77,287.54,73.42,289.02,73.42,291.05z"/>
		<path d="M95.58,296.79c-0.86,0.81-1.69,1.39-2.49,1.73c-0.8,0.33-1.65,0.5-2.57,0.5c-1.51,0-2.67-0.41-3.48-1.23
			c-0.81-0.82-1.22-1.87-1.22-3.15c0-0.75,0.15-1.43,0.46-2.05c0.31-0.62,0.71-1.11,1.2-1.49c0.5-0.37,1.05-0.66,1.68-0.85
			c0.46-0.14,1.15-0.26,2.07-0.39c1.88-0.25,3.27-0.55,4.15-0.89c0.01-0.35,0.01-0.58,0.01-0.68c0-1.06-0.22-1.8-0.66-2.23
			c-0.6-0.58-1.48-0.88-2.65-0.88c-1.1,0-1.9,0.21-2.43,0.64c-0.52,0.43-0.91,1.18-1.16,2.27l-2.28-0.35
			c0.21-1.09,0.55-1.96,1.02-2.63c0.47-0.67,1.16-1.18,2.06-1.54c0.9-0.36,1.94-0.54,3.12-0.54c1.17,0,2.13,0.15,2.86,0.46
			c0.73,0.31,1.27,0.69,1.62,1.16c0.34,0.47,0.59,1.05,0.72,1.76c0.08,0.44,0.12,1.24,0.12,2.39v3.45c0,2.41,0.05,3.93,0.15,4.57
			c0.1,0.64,0.3,1.25,0.59,1.83h-2.43C95.8,298.14,95.65,297.51,95.58,296.79z M95.39,291c-0.85,0.38-2.11,0.71-3.8,0.98
			c-0.96,0.15-1.64,0.32-2.03,0.52c-0.4,0.19-0.7,0.47-0.92,0.84c-0.22,0.37-0.32,0.78-0.32,1.23c0,0.69,0.24,1.27,0.71,1.73
			c0.47,0.46,1.16,0.69,2.06,0.69c0.9,0,1.7-0.22,2.39-0.66c0.7-0.43,1.21-1.03,1.54-1.79c0.25-0.59,0.38-1.45,0.38-2.59V291z"/>
		<path d="M109.27,298.67V285.4h-2.06v-2.01h2.06v-1.62c0-1.03,0.08-1.79,0.25-2.29c0.22-0.67,0.62-1.22,1.18-1.63
			c0.56-0.42,1.36-0.63,2.37-0.63c0.66,0,1.38,0.09,2.17,0.26l-0.35,2.26c-0.48-0.09-0.94-0.14-1.37-0.14
			c-0.71,0-1.21,0.17-1.5,0.51c-0.29,0.33-0.44,0.96-0.44,1.88v1.41h2.68v2.01h-2.68v13.27H109.27z"/>
		<path d="M125.49,293.75l2.41,0.33c-0.38,1.56-1.08,2.78-2.11,3.64s-2.34,1.3-3.93,1.3c-2.01,0-3.6-0.69-4.78-2.06
			c-1.18-1.38-1.77-3.31-1.77-5.79c0-2.57,0.6-4.57,1.79-5.99c1.19-1.42,2.74-2.13,4.63-2.13c1.84,0,3.34,0.7,4.5,2.09
			c1.16,1.39,1.75,3.35,1.75,5.87c0,0.15,0,0.38-0.01,0.69h-10.25c0.09,1.68,0.51,2.96,1.28,3.86c0.77,0.89,1.73,1.34,2.87,1.34
			c0.85,0,1.58-0.25,2.19-0.75C124.65,295.64,125.13,294.85,125.49,293.75z M117.84,289.57h7.67c-0.1-1.29-0.4-2.25-0.88-2.89
			c-0.74-1-1.7-1.5-2.89-1.5c-1.07,0-1.97,0.4-2.7,1.2C118.32,287.17,117.92,288.23,117.84,289.57z"/>
		<path d="M130.82,298.67v-15.28h2.08v2.15c0.43-0.75,1-1.35,1.72-1.81c0.72-0.46,1.53-0.68,2.45-0.68c1.02,0,1.85,0.24,2.5,0.71
			c0.65,0.47,1.11,1.13,1.38,1.97c1.09-1.78,2.5-2.68,4.24-2.68c1.36,0,2.41,0.42,3.14,1.26c0.73,0.84,1.1,2.13,1.1,3.88v10.49
			h-2.32v-9.63c0-1.04-0.08-1.78-0.23-2.24c-0.15-0.46-0.42-0.82-0.82-1.1c-0.4-0.28-0.86-0.42-1.4-0.42
			c-0.97,0-1.77,0.36-2.41,1.07c-0.64,0.71-0.96,1.86-0.96,3.43v8.88h-2.33v-9.93c0-1.15-0.19-2.01-0.57-2.59
			c-0.38-0.58-1-0.86-1.86-0.86c-0.66,0-1.26,0.19-1.82,0.58c-0.56,0.38-0.96,0.94-1.21,1.69c-0.25,0.74-0.38,1.8-0.38,3.19v7.93
			H130.82z"/>
		<path d="M162.31,293.75l2.41,0.33c-0.38,1.56-1.08,2.78-2.11,3.64c-1.03,0.86-2.34,1.3-3.93,1.3c-2.01,0-3.6-0.69-4.78-2.06
			c-1.18-1.38-1.77-3.31-1.77-5.79c0-2.57,0.6-4.57,1.79-5.99c1.19-1.42,2.74-2.13,4.63-2.13c1.84,0,3.34,0.7,4.5,2.09
			c1.16,1.39,1.75,3.35,1.75,5.87c0,0.15,0,0.38-0.01,0.69h-10.25c0.09,1.68,0.51,2.96,1.28,3.86c0.77,0.89,1.73,1.34,2.87,1.34
			c0.85,0,1.58-0.25,2.19-0.75C161.47,295.64,161.95,294.85,162.31,293.75z M154.66,289.57h7.67c-0.1-1.29-0.4-2.25-0.88-2.89
			c-0.74-1-1.7-1.5-2.89-1.5c-1.07,0-1.97,0.4-2.7,1.2C155.14,287.17,154.74,288.23,154.66,289.57z"/>
		<path d="M167.64,298.67v-15.28h2.1v2.17c1.01-1.68,2.47-2.52,4.37-2.52c0.83,0,1.59,0.16,2.28,0.5c0.7,0.33,1.22,0.76,1.56,1.3
			c0.34,0.54,0.59,1.17,0.72,1.91c0.09,0.48,0.13,1.32,0.13,2.52v9.4h-2.33v-9.3c0-1.05-0.09-1.84-0.27-2.37
			c-0.18-0.52-0.5-0.94-0.96-1.25c-0.46-0.31-1-0.47-1.62-0.47c-0.99,0-1.85,0.35-2.57,1.05c-0.72,0.7-1.08,2.03-1.08,3.99v8.35
			H167.64z"/>
		<path d="M182.39,280.56v-2.98h2.33v2.98H182.39z M182.39,298.67v-15.28h2.33v15.28H182.39z"/>
		<path d="M188.27,298.67v-15.28h2.1v2.17c1.01-1.68,2.47-2.52,4.37-2.52c0.83,0,1.59,0.16,2.28,0.5c0.7,0.33,1.22,0.76,1.56,1.3
			c0.34,0.54,0.59,1.17,0.72,1.91c0.09,0.48,0.13,1.32,0.13,2.52v9.4h-2.33v-9.3c0-1.05-0.09-1.84-0.27-2.37
			c-0.18-0.52-0.5-0.94-0.96-1.25c-0.46-0.31-1-0.47-1.62-0.47c-0.99,0-1.85,0.35-2.57,1.05c-0.72,0.7-1.08,2.03-1.08,3.99v8.35
			H188.27z"/>
		<path d="M211.98,296.79c-0.86,0.81-1.69,1.39-2.49,1.73c-0.8,0.33-1.65,0.5-2.57,0.5c-1.51,0-2.67-0.41-3.48-1.23
			c-0.81-0.82-1.22-1.87-1.22-3.15c0-0.75,0.15-1.43,0.46-2.05c0.31-0.62,0.71-1.11,1.2-1.49c0.5-0.37,1.05-0.66,1.68-0.85
			c0.46-0.14,1.15-0.26,2.07-0.39c1.88-0.25,3.27-0.55,4.15-0.89c0.01-0.35,0.01-0.58,0.01-0.68c0-1.06-0.22-1.8-0.66-2.23
			c-0.6-0.58-1.48-0.88-2.65-0.88c-1.1,0-1.9,0.21-2.43,0.64c-0.52,0.43-0.91,1.18-1.16,2.27l-2.28-0.35
			c0.21-1.09,0.55-1.96,1.02-2.63c0.47-0.67,1.16-1.18,2.06-1.54c0.9-0.36,1.94-0.54,3.12-0.54c1.17,0,2.13,0.15,2.86,0.46
			c0.73,0.31,1.27,0.69,1.62,1.16s0.59,1.05,0.72,1.76c0.08,0.44,0.12,1.24,0.12,2.39v3.45c0,2.41,0.05,3.93,0.15,4.57
			c0.1,0.64,0.3,1.25,0.59,1.83h-2.43C212.2,298.14,212.05,297.51,211.98,296.79z M211.78,291c-0.85,0.38-2.11,0.71-3.8,0.98
			c-0.96,0.15-1.64,0.32-2.03,0.52c-0.4,0.19-0.7,0.47-0.92,0.84c-0.22,0.37-0.32,0.78-0.32,1.23c0,0.69,0.24,1.27,0.71,1.73
			c0.47,0.46,1.16,0.69,2.06,0.69c0.9,0,1.7-0.22,2.39-0.66c0.7-0.43,1.21-1.03,1.54-1.79c0.25-0.59,0.38-1.45,0.38-2.59V291z"/>
		<path d="M225.01,304.56l-0.26-2.43c0.51,0.15,0.95,0.23,1.33,0.23c0.52,0,0.93-0.09,1.24-0.29c0.31-0.19,0.56-0.46,0.76-0.81
			c0.15-0.26,0.38-0.9,0.71-1.93c0.04-0.14,0.11-0.35,0.21-0.63l-5.22-15.31h2.51l2.86,8.85c0.37,1.12,0.7,2.3,1,3.54
			c0.27-1.19,0.59-2.35,0.96-3.48l2.94-8.91h2.33l-5.23,15.54c-0.56,1.68-1,2.84-1.31,3.47c-0.41,0.85-0.89,1.48-1.42,1.88
			c-0.54,0.4-1.17,0.6-1.92,0.6C226.06,304.88,225.56,304.77,225.01,304.56z"/>
		<path d="M254.7,296.79c-0.86,0.81-1.69,1.39-2.49,1.73c-0.8,0.33-1.65,0.5-2.57,0.5c-1.51,0-2.67-0.41-3.48-1.23
			c-0.81-0.82-1.22-1.87-1.22-3.15c0-0.75,0.15-1.43,0.46-2.05c0.31-0.62,0.71-1.11,1.2-1.49c0.5-0.37,1.05-0.66,1.68-0.85
			c0.46-0.14,1.15-0.26,2.07-0.39c1.88-0.25,3.27-0.55,4.15-0.89c0.01-0.35,0.01-0.58,0.01-0.68c0-1.06-0.22-1.8-0.66-2.23
			c-0.6-0.58-1.48-0.88-2.65-0.88c-1.1,0-1.9,0.21-2.43,0.64c-0.52,0.43-0.91,1.18-1.16,2.27l-2.28-0.35
			c0.21-1.09,0.55-1.96,1.02-2.63c0.47-0.67,1.16-1.18,2.06-1.54c0.9-0.36,1.94-0.54,3.12-0.54c1.17,0,2.13,0.15,2.86,0.46
			c0.73,0.31,1.27,0.69,1.62,1.16s0.59,1.05,0.72,1.76c0.08,0.44,0.12,1.24,0.12,2.39v3.45c0,2.41,0.05,3.93,0.15,4.57
			c0.1,0.64,0.3,1.25,0.59,1.83h-2.43C254.92,298.14,254.77,297.51,254.7,296.79z M254.5,291c-0.85,0.38-2.11,0.71-3.8,0.98
			c-0.96,0.15-1.64,0.32-2.03,0.52c-0.4,0.19-0.7,0.47-0.92,0.84c-0.22,0.37-0.32,0.78-0.32,1.23c0,0.69,0.24,1.27,0.71,1.73
			c0.47,0.46,1.16,0.69,2.06,0.69c0.9,0,1.7-0.22,2.39-0.66c0.7-0.43,1.21-1.03,1.54-1.79c0.25-0.59,0.38-1.45,0.38-2.59V291z"/>
		<path d="M269.44,293.08l2.29,0.33c-0.25,1.76-0.89,3.13-1.92,4.12c-1.03,0.99-2.3,1.49-3.8,1.49c-1.88,0-3.39-0.68-4.54-2.05
			c-1.14-1.37-1.72-3.33-1.72-5.88c0-1.65,0.25-3.1,0.74-4.33c0.49-1.24,1.24-2.17,2.25-2.78c1-0.62,2.1-0.93,3.28-0.93
			c1.49,0,2.71,0.42,3.66,1.26c0.95,0.84,1.56,2.03,1.82,3.58l-2.26,0.39c-0.22-1.03-0.6-1.8-1.14-2.32
			c-0.55-0.52-1.21-0.78-1.99-0.78c-1.17,0-2.13,0.47-2.86,1.4c-0.73,0.94-1.1,2.42-1.1,4.44c0,2.05,0.35,3.55,1.06,4.48
			c0.71,0.93,1.63,1.39,2.77,1.39c0.91,0,1.68-0.31,2.29-0.93C268.89,295.33,269.28,294.37,269.44,293.08z"/>
		<path d="M282.69,293.08l2.29,0.33c-0.25,1.76-0.89,3.13-1.92,4.12c-1.03,0.99-2.3,1.49-3.8,1.49c-1.88,0-3.39-0.68-4.54-2.05
			c-1.14-1.37-1.72-3.33-1.72-5.88c0-1.65,0.25-3.1,0.74-4.33c0.49-1.24,1.24-2.17,2.25-2.78c1-0.62,2.1-0.93,3.28-0.93
			c1.49,0,2.71,0.42,3.66,1.26c0.95,0.84,1.56,2.03,1.82,3.58l-2.26,0.39c-0.22-1.03-0.6-1.8-1.14-2.32
			c-0.55-0.52-1.21-0.78-1.99-0.78c-1.17,0-2.13,0.47-2.86,1.4c-0.73,0.94-1.1,2.42-1.1,4.44c0,2.05,0.35,3.55,1.06,4.48
			c0.71,0.93,1.63,1.39,2.77,1.39c0.91,0,1.68-0.31,2.29-0.93C282.14,295.33,282.53,294.37,282.69,293.08z"/>
		<path d="M296.38,293.75l2.41,0.33c-0.38,1.56-1.08,2.78-2.11,3.64c-1.03,0.86-2.34,1.3-3.93,1.3c-2.01,0-3.6-0.69-4.78-2.06
			c-1.18-1.38-1.77-3.31-1.77-5.79c0-2.57,0.6-4.57,1.79-5.99c1.19-1.42,2.74-2.13,4.63-2.13c1.84,0,3.34,0.7,4.5,2.09
			c1.16,1.39,1.75,3.35,1.75,5.87c0,0.15,0,0.38-0.01,0.69h-10.25c0.09,1.68,0.51,2.96,1.28,3.86c0.77,0.89,1.73,1.34,2.87,1.34
			c0.85,0,1.58-0.25,2.19-0.75C295.55,295.64,296.03,294.85,296.38,293.75z M288.74,289.57h7.67c-0.1-1.29-0.4-2.25-0.88-2.89
			c-0.74-1-1.7-1.5-2.89-1.5c-1.07,0-1.97,0.4-2.7,1.2C289.22,287.17,288.81,288.23,288.74,289.57z"/>
		<path d="M300.78,294.11l2.3-0.4c0.13,1.03,0.49,1.81,1.08,2.36c0.59,0.55,1.42,0.82,2.48,0.82c1.07,0,1.86-0.24,2.38-0.73
			c0.52-0.48,0.78-1.05,0.78-1.7c0-0.59-0.23-1.05-0.69-1.38c-0.32-0.23-1.11-0.52-2.38-0.88c-1.71-0.48-2.89-0.89-3.55-1.25
			c-0.66-0.35-1.16-0.83-1.5-1.45c-0.34-0.62-0.51-1.3-0.51-2.05c0-0.68,0.14-1.31,0.42-1.89c0.28-0.58,0.66-1.06,1.15-1.45
			c0.36-0.3,0.86-0.55,1.48-0.76c0.62-0.2,1.3-0.31,2.01-0.31c1.08,0,2.03,0.17,2.84,0.52c0.82,0.35,1.42,0.81,1.81,1.4
			c0.39,0.59,0.66,1.38,0.8,2.37l-2.28,0.35c-0.1-0.79-0.4-1.4-0.9-1.84c-0.5-0.44-1.2-0.66-2.1-0.66c-1.07,0-1.83,0.2-2.29,0.59
			c-0.46,0.39-0.69,0.85-0.69,1.38c0,0.33,0.1,0.64,0.28,0.91c0.19,0.28,0.49,0.51,0.89,0.69c0.23,0.1,0.92,0.32,2.06,0.66
			c1.65,0.49,2.8,0.89,3.45,1.2c0.65,0.31,1.16,0.77,1.53,1.36c0.37,0.6,0.56,1.33,0.56,2.22c0,0.86-0.23,1.68-0.68,2.44
			c-0.45,0.76-1.11,1.35-1.96,1.77c-0.85,0.42-1.82,0.63-2.9,0.63c-1.79,0-3.15-0.41-4.08-1.24
			C301.64,296.96,301.04,295.73,300.78,294.11z"/>
		<path d="M314.1,291.03c0-2.83,0.71-4.93,2.12-6.29c1.18-1.13,2.62-1.7,4.32-1.7c1.89,0,3.43,0.69,4.63,2.06
			c1.2,1.38,1.8,3.28,1.8,5.71c0,1.97-0.26,3.51-0.8,4.64c-0.53,1.13-1.3,2-2.32,2.63c-1.01,0.62-2.12,0.93-3.32,0.93
			c-1.92,0-3.48-0.69-4.67-2.06C314.69,295.59,314.1,293.61,314.1,291.03z M316.5,291.03c0,1.96,0.38,3.42,1.15,4.4
			c0.77,0.97,1.73,1.46,2.9,1.46c1.16,0,2.12-0.49,2.89-1.47s1.15-2.47,1.15-4.47c0-1.89-0.39-3.32-1.16-4.3
			c-0.77-0.97-1.73-1.46-2.88-1.46c-1.16,0-2.13,0.48-2.9,1.45C316.88,287.61,316.5,289.08,316.5,291.03z"/>
		<path d="M329.68,298.67v-15.28h2.1v2.32c0.54-1.09,1.03-1.8,1.48-2.15c0.45-0.35,0.95-0.52,1.5-0.52c0.78,0,1.58,0.28,2.39,0.83
			l-0.8,2.4c-0.57-0.37-1.14-0.56-1.71-0.56c-0.51,0-0.97,0.17-1.37,0.51c-0.41,0.34-0.69,0.81-0.87,1.42
			c-0.26,0.92-0.39,1.93-0.39,3.02v8H329.68z"/>
		<path d="M338.55,280.56v-2.98h2.33v2.98H338.55z M338.55,298.67v-15.28h2.33v15.28H338.55z"/>
		<path d="M343.56,291.03c0-2.83,0.71-4.93,2.12-6.29c1.18-1.13,2.62-1.7,4.32-1.7c1.89,0,3.43,0.69,4.63,2.06
			c1.2,1.38,1.8,3.28,1.8,5.71c0,1.97-0.26,3.51-0.8,4.64c-0.53,1.13-1.3,2-2.32,2.63c-1.01,0.62-2.12,0.93-3.32,0.93
			c-1.92,0-3.48-0.69-4.67-2.06C344.15,295.59,343.56,293.61,343.56,291.03z M345.95,291.03c0,1.96,0.38,3.42,1.15,4.4
			c0.77,0.97,1.73,1.46,2.9,1.46c1.16,0,2.12-0.49,2.89-1.47s1.15-2.47,1.15-4.47c0-1.89-0.39-3.32-1.16-4.3
			c-0.77-0.97-1.73-1.46-2.88-1.46c-1.16,0-2.13,0.48-2.9,1.45C346.33,287.61,345.95,289.08,345.95,291.03z"/>
		<path d="M358.23,294.11l2.3-0.4c0.13,1.03,0.49,1.81,1.08,2.36c0.59,0.55,1.42,0.82,2.48,0.82c1.07,0,1.86-0.24,2.38-0.73
			c0.52-0.48,0.78-1.05,0.78-1.7c0-0.59-0.23-1.05-0.69-1.38c-0.32-0.23-1.11-0.52-2.38-0.88c-1.71-0.48-2.89-0.89-3.55-1.25
			c-0.66-0.35-1.16-0.83-1.5-1.45c-0.34-0.62-0.51-1.3-0.51-2.05c0-0.68,0.14-1.31,0.42-1.89c0.28-0.58,0.66-1.06,1.15-1.45
			c0.36-0.3,0.86-0.55,1.48-0.76c0.62-0.2,1.3-0.31,2.01-0.31c1.08,0,2.03,0.17,2.84,0.52c0.82,0.35,1.42,0.81,1.81,1.4
			c0.39,0.59,0.66,1.38,0.8,2.37l-2.28,0.35c-0.1-0.79-0.4-1.4-0.9-1.84c-0.5-0.44-1.2-0.66-2.1-0.66c-1.07,0-1.83,0.2-2.29,0.59
			c-0.46,0.39-0.69,0.85-0.69,1.38c0,0.33,0.1,0.64,0.28,0.91c0.19,0.28,0.49,0.51,0.89,0.69c0.23,0.1,0.92,0.32,2.06,0.66
			c1.65,0.49,2.8,0.89,3.45,1.2c0.65,0.31,1.16,0.77,1.53,1.36c0.37,0.6,0.56,1.33,0.56,2.22c0,0.86-0.23,1.68-0.68,2.44
			c-0.45,0.76-1.11,1.35-1.96,1.77c-0.85,0.42-1.82,0.63-2.9,0.63c-1.79,0-3.15-0.41-4.08-1.24
			C359.09,296.96,358.49,295.73,358.23,294.11z"/>
	</g>
</g>
<g id="Capa_7">
	<path class="st6" d="M169.26,93.44c-0.78-3.55,11.98-9.38,26.89-17.73c5-2.8,12.4-7.09,21.28-12.84
		c-0.31-0.09,11.41-7.9,18.5-20.72c1.28-2.32,1.82-3.9,1.2-6.05c-0.52-1.81-0.73-2.34-2.17-3.12c-2.03-1.09-4.49-2.7-6.25-5.43
		c-2.91-4.53-2.62-12.45,1.22-16.98c3.08-3.64,7.3-3.73,7.62-3.74c3.25-0.02,6.39,1.69,8.23,4.42c1.48,2.18,1.74,4.46,2.13,7.81
		c0.42,3.62-0.24,5.1,0.04,6.76c0.01,0.05,0.04,0.22-0.04,0.37c-0.38,0.75-3.05,0.53-4.27-0.68c-2.28-2.27,1.3-7.29-0.91-10.87
		c-1.43-2.31-4.92-3.45-7.32-2.04c-3.11,1.83-2.79,6.98-2.74,7.81c0.21,3.48,0.75,3.89,3.04,6.61c1.61,1.91,3.59,3.82,4.28,4.94
		c2.24,3.63,1.43,4.98,2.13,8.32c0.41,1.96,1.99,7.99,5.34,10.87c5.76,4.95,10.52,7.64,10.52,7.64s14.96,15.65,29.88,20.38
		c1.14,0.36,4.18,1.27,7.93,3.4c6.26,3.55,11.98,9.09,11.28,10.53c-0.57,1.17-5.28-0.53-9.45-2.04c-6.95-2.51-11.46-5.11-15.24-7.13
		c-12.36-6.6-11.84-4.26-21.65-9.85c-9.19-5.24-10.43-7.74-16.46-8.83c-6.14-1.11-11.31,0.32-13.72,1.02
		c-5.62,1.62-5.97,3.28-16.16,8.49c-4.73,2.42-8.49,4.02-13.41,6.11c-7.17,3.05-8.23,3.15-11.97,5.94
		c-3.78,2.82-6.17,3.32-10.37,5.77c-1.17,0.69-5.78,4.65-8.61,1.95C169.68,94.22,169.36,93.92,169.26,93.44z"/>
	<path class="st7" d="M182.14,81.51c0,0,2.2,40.43,0,42.54s-11.43,9.68-8.69,18.09s26.75,24.97,35.9,27
		c9.15,2.04,29.04,23.18,28.81,29.3s13.26,25.22-11.89,55.54s-38.72,30.9-43.9,33.88c-5.18,2.99-110.01,63.43-110.01,63.43
		c-35.42,36.18-52.54,31.98-43.42,87.89C30.31,447.6,55,501.1,55,501.1s-16.46-50.95-5.49-68.78s72.03-50.95,83-52.73
		c10.98-1.78,9.37-2.55,9.37-2.55l-7.85,6.88c0,0-69.21,32.1-69.89,51.21c-0.69,19.11,25.38,64.45,43.44,63.69
		c18.06-0.76,76.37-24.97,76.37-24.97l39.68-14.01c26.85-8.15,26.85-8.15,26.85-8.15s38.87,2.29,41.39,34.65
		c0,0,3.89-36.43-28.58-52.48c0,0,17.84-10.7,36.36,14.78c18.52,25.48,19.44,46.37,20.58,48.91s-1.83,6.62,9.6,9.17
		c11.43,2.55,25.38-37.19,26.75-41.02c1.37-3.82,5.03-16.05-1.14-37.45s-57.62-113.11-57.62-113.11s-15.32-28.79-15.55-56.3
		c-0.23-27.51,2.97-44.58,13.03-64.45s12.8-32.1,16.23-59.61s-16.92-33.63-17.38-34.14c-0.46-0.51,0.69-20.89,0.69-20.89h-6.63
		c0,0-3.2,14.27-6.63,17.58c-3.43,3.31-60.52,32.25-63.11,33.63s-10.75,0.76-14.18,0c-3.43-0.76-14.11-20.71-14.86-27.77
		c-0.75-7.06-2.29-21.4-2.29-21.4L182.14,81.51z"/>
</g>
<g id="Capa_5" class="st0">
	<g class="st3">
		<text transform="matrix(0.633 0 0 1 1346.4407 -500.4279)" style="font-family:'LucidaHandwriting-Italic'; font-size:35.506px;">Adrile Boutique</text>
		<text transform="matrix(1 0 0 1 1367.3094 -477.2314)" style="font-family:'ArialMT'; font-size:13px;">Moda femenina y accesorios</text>
		<path class="st4" d="M1275.24-551.59c-0.32-1.32,4.96-3.49,11.14-6.59c2.07-1.04,5.14-2.64,8.82-4.77
			c-0.13-0.04,4.73-2.94,7.67-7.71c0.53-0.86,0.75-1.45,0.5-2.25c-0.22-0.67-0.3-0.87-0.9-1.16c-0.84-0.41-1.86-1-2.59-2.02
			c-1.21-1.68-1.09-4.63,0.51-6.32c1.28-1.35,3.02-1.39,3.16-1.39c1.35-0.01,2.65,0.63,3.41,1.64c0.61,0.81,0.72,1.66,0.88,2.91
			c0.17,1.35-0.1,1.9,0.02,2.51c0,0.02,0.02,0.08-0.02,0.14c-0.16,0.28-1.26,0.2-1.77-0.25c-0.94-0.85,0.54-2.71-0.38-4.04
			c-0.59-0.86-2.04-1.28-3.03-0.76c-1.29,0.68-1.16,2.6-1.14,2.91c0.09,1.29,0.31,1.45,1.26,2.46c0.67,0.71,1.49,1.42,1.77,1.84
			c0.93,1.35,0.59,1.85,0.88,3.09c0.17,0.73,0.82,2.97,2.21,4.04c2.38,1.84,4.36,2.84,4.36,2.84s6.2,5.82,12.38,7.58
			c0.47,0.13,1.73,0.47,3.28,1.26c2.59,1.32,4.96,3.38,4.67,3.92c-0.23,0.43-2.19-0.2-3.92-0.76c-2.88-0.93-4.75-1.9-6.32-2.65
			c-5.12-2.46-4.9-1.58-8.97-3.66c-3.81-1.95-4.32-2.88-6.82-3.28c-2.54-0.41-4.69,0.12-5.68,0.38c-2.33,0.6-2.47,1.22-6.69,3.16
			c-1.96,0.9-3.52,1.49-5.56,2.27c-2.97,1.14-3.41,1.17-4.96,2.21c-1.57,1.05-2.55,1.24-4.29,2.15c-0.49,0.26-2.39,1.73-3.57,0.73
			C1275.42-551.3,1275.29-551.41,1275.24-551.59z"/>
		<path class="st5" d="M1280.58-555.98c0,0,0.91,15.04,0,15.82c-0.91,0.78-4.74,3.6-3.6,6.73c1.14,3.13,11.08,9.28,14.87,10.04
			c3.79,0.76,12.03,8.62,11.94,10.89s5.49,9.38-4.93,20.65c-10.42,11.27-16.04,11.49-18.19,12.6c-2.15,1.11-45.58,23.59-45.58,23.59
			c-14.67,13.45-21.77,11.89-17.99,32.68c0.57,3.13,10.8,23.02,10.8,23.02s-6.82-18.95-2.27-25.58
			c4.55-6.63,29.84-18.95,34.39-19.61s3.88-0.95,3.88-0.95l-3.25,2.56c0,0-28.67,11.94-28.96,19.04c-0.28,7.11,10.52,23.97,18,23.68
			s31.64-9.28,31.64-9.28l16.44-5.21c11.13-3.03,11.13-3.03,11.13-3.03s16.11,0.85,17.15,12.88c0,0,1.61-13.55-11.84-19.52
			c0,0,7.39-3.98,15.06,5.49c7.67,9.47,8.05,17.24,8.53,18.19c0.47,0.95-0.76,2.46,3.98,3.41s10.52-13.83,11.08-15.25
			c0.57-1.42,2.08-5.97-0.47-13.93c-2.56-7.96-23.87-42.06-23.87-42.06s-6.35-10.71-6.44-20.94c-0.09-10.23,1.23-16.58,5.4-23.97
			s5.31-11.94,6.73-22.17c1.42-10.23-7.01-12.51-7.2-12.69s0.28-7.77,0.28-7.77h-2.75c0,0-1.33,5.31-2.75,6.54
			s-25.07,11.99-26.15,12.51c-1.07,0.51-4.45,0.28-5.87,0c-1.42-0.28-5.85-7.7-6.16-10.33c-0.31-2.63-0.95-7.96-0.95-7.96
			L1280.58-555.98z"/>
	</g>
</g>
</svg>
